<mxfile host="app.diagrams.net" agent="Mozilla/5.0 (Windows NT 10.0; Win64; x64) AppleWebKit/537.36 (KHTML, like Gecko) Chrome/131.0.0.0 Safari/537.36" version="25.0.3">
  <diagram id="C5RBs43oDa-KdzZeNtuy" name="Page-1">
    <mxGraphModel dx="792" dy="1131" grid="1" gridSize="10" guides="1" tooltips="1" connect="1" arrows="1" fold="1" page="1" pageScale="1" pageWidth="827" pageHeight="1169" math="0" shadow="0">
      <root>
        <mxCell id="WIyWlLk6GJQsqaUBKTNV-0" />
        <mxCell id="WIyWlLk6GJQsqaUBKTNV-1" parent="WIyWlLk6GJQsqaUBKTNV-0" />
        <mxCell id="68IwWovNncWmHWI2_yqs-14" value="" style="rounded=0;whiteSpace=wrap;html=1;" vertex="1" parent="WIyWlLk6GJQsqaUBKTNV-1">
          <mxGeometry x="330" y="380" width="960" height="260" as="geometry" />
        </mxCell>
        <mxCell id="68IwWovNncWmHWI2_yqs-2" value="" style="edgeStyle=orthogonalEdgeStyle;rounded=0;orthogonalLoop=1;jettySize=auto;html=1;" edge="1" parent="WIyWlLk6GJQsqaUBKTNV-1" source="68IwWovNncWmHWI2_yqs-0" target="68IwWovNncWmHWI2_yqs-1">
          <mxGeometry relative="1" as="geometry" />
        </mxCell>
        <mxCell id="68IwWovNncWmHWI2_yqs-0" value="Problem awareness and motivation" style="rounded=0;whiteSpace=wrap;html=1;" vertex="1" parent="WIyWlLk6GJQsqaUBKTNV-1">
          <mxGeometry x="350" y="550" width="120" height="60" as="geometry" />
        </mxCell>
        <mxCell id="68IwWovNncWmHWI2_yqs-4" value="" style="edgeStyle=orthogonalEdgeStyle;rounded=0;orthogonalLoop=1;jettySize=auto;html=1;" edge="1" parent="WIyWlLk6GJQsqaUBKTNV-1" source="68IwWovNncWmHWI2_yqs-1" target="68IwWovNncWmHWI2_yqs-3">
          <mxGeometry relative="1" as="geometry" />
        </mxCell>
        <mxCell id="68IwWovNncWmHWI2_yqs-1" value="Research objectives" style="whiteSpace=wrap;html=1;rounded=0;" vertex="1" parent="WIyWlLk6GJQsqaUBKTNV-1">
          <mxGeometry x="550" y="550" width="120" height="60" as="geometry" />
        </mxCell>
        <mxCell id="68IwWovNncWmHWI2_yqs-6" value="" style="edgeStyle=orthogonalEdgeStyle;rounded=0;orthogonalLoop=1;jettySize=auto;html=1;" edge="1" parent="WIyWlLk6GJQsqaUBKTNV-1" source="68IwWovNncWmHWI2_yqs-3" target="68IwWovNncWmHWI2_yqs-5">
          <mxGeometry relative="1" as="geometry" />
        </mxCell>
        <mxCell id="68IwWovNncWmHWI2_yqs-3" value="Design and development" style="whiteSpace=wrap;html=1;rounded=0;" vertex="1" parent="WIyWlLk6GJQsqaUBKTNV-1">
          <mxGeometry x="750" y="550" width="120" height="60" as="geometry" />
        </mxCell>
        <mxCell id="68IwWovNncWmHWI2_yqs-8" value="" style="edgeStyle=orthogonalEdgeStyle;rounded=0;orthogonalLoop=1;jettySize=auto;html=1;" edge="1" parent="WIyWlLk6GJQsqaUBKTNV-1" source="68IwWovNncWmHWI2_yqs-5" target="68IwWovNncWmHWI2_yqs-7">
          <mxGeometry relative="1" as="geometry" />
        </mxCell>
        <mxCell id="68IwWovNncWmHWI2_yqs-5" value="Demonstration and evaluation" style="whiteSpace=wrap;html=1;rounded=0;" vertex="1" parent="WIyWlLk6GJQsqaUBKTNV-1">
          <mxGeometry x="950" y="550" width="120" height="60" as="geometry" />
        </mxCell>
        <mxCell id="68IwWovNncWmHWI2_yqs-7" value="Communication" style="whiteSpace=wrap;html=1;rounded=0;" vertex="1" parent="WIyWlLk6GJQsqaUBKTNV-1">
          <mxGeometry x="1150" y="550" width="120" height="60" as="geometry" />
        </mxCell>
        <mxCell id="68IwWovNncWmHWI2_yqs-11" style="edgeStyle=orthogonalEdgeStyle;rounded=0;orthogonalLoop=1;jettySize=auto;html=1;entryX=0.5;entryY=0;entryDx=0;entryDy=0;" edge="1" parent="WIyWlLk6GJQsqaUBKTNV-1" source="68IwWovNncWmHWI2_yqs-9" target="68IwWovNncWmHWI2_yqs-3">
          <mxGeometry relative="1" as="geometry" />
        </mxCell>
        <mxCell id="68IwWovNncWmHWI2_yqs-12" style="edgeStyle=orthogonalEdgeStyle;rounded=0;orthogonalLoop=1;jettySize=auto;html=1;" edge="1" parent="WIyWlLk6GJQsqaUBKTNV-1" source="68IwWovNncWmHWI2_yqs-9" target="68IwWovNncWmHWI2_yqs-5">
          <mxGeometry relative="1" as="geometry" />
        </mxCell>
        <mxCell id="68IwWovNncWmHWI2_yqs-13" style="edgeStyle=orthogonalEdgeStyle;rounded=0;orthogonalLoop=1;jettySize=auto;html=1;" edge="1" parent="WIyWlLk6GJQsqaUBKTNV-1" source="68IwWovNncWmHWI2_yqs-9" target="68IwWovNncWmHWI2_yqs-7">
          <mxGeometry relative="1" as="geometry" />
        </mxCell>
        <mxCell id="68IwWovNncWmHWI2_yqs-9" value="Iteration process" style="whiteSpace=wrap;html=1;rounded=0;" vertex="1" parent="WIyWlLk6GJQsqaUBKTNV-1">
          <mxGeometry x="775" y="410" width="470" height="60" as="geometry" />
        </mxCell>
      </root>
    </mxGraphModel>
  </diagram>
</mxfile>
